#tb 0: 1/1000
#tb 1: 1/44100
0,          0,          0,        0,  3824640, 0x9a253d29
1,          0,          0,    16384,    32768, 0x6b41078a
1,      14288,      14288,    16384,    32768, 0x96f7bfa2
0,        499,        499,        0,  3824640, 0xcb232b06
0,        624,        624,        0,  3824640, 0xb03c288c
0,        625,        625,        0,  3824640, 0x260b284e
0,        626,        626,        0,  3824640, 0x6f391ceb
0,        627,        627,        0,  3824640, 0x03252465
0,        628,        628,        0,  3824640, 0x5a392138
1,      30650,      30650,    14336,    28672, 0xfafb3922
0,        749,        749,        0,  3824640, 0x53ed2f30
0,        750,        750,        0,  3824640, 0x00af334d
0,        751,        751,        0,  3824640, 0x2e8b29fb
0,        752,        752,        0,  3824640, 0x700a3870
0,        753,        753,        0,  3824640, 0x5a873a09
0,        754,        754,        0,  3824640, 0x9cd62d80
0,        874,        874,        0,  3824640, 0x35ba3ef7
0,        875,        875,        0,  3824640, 0x05c24e9a
0,        876,        876,        0,  3824640, 0x47b35e8b
0,        877,        877,        0,  3824640, 0x8d806478
0,        878,        878,        0,  3824640, 0x16b4643f
0,        879,        879,        0,  3824640, 0x6c556423
0,        880,        880,        0,  3824640, 0x3c126423
